<svg width="125" height="89" viewBox="0 0 125 89" fill="none" xmlns="http://www.w3.org/2000/svg">
<line x1="62.4445" y1="-1.74846e-07" x2="62.4445" y2="50" stroke="black" stroke-width="8"/>
<path d="M38 26.5557H88" stroke="black" stroke-width="8"/>
<path d="M14.6641 77.5859C14.4531 79.3906 13.7852 80.7852 12.6602 81.7695C11.543 82.7461 10.0547 83.2344 8.19531 83.2344C6.17969 83.2344 4.5625 82.5117 3.34375 81.0664C2.13281 79.6211 1.52734 77.6875 1.52734 75.2656V73.625C1.52734 72.0391 1.80859 70.6445 2.37109 69.4414C2.94141 68.2383 3.74609 67.3164 4.78516 66.6758C5.82422 66.0273 7.02734 65.7031 8.39453 65.7031C10.207 65.7031 11.6602 66.2109 12.7539 67.2266C13.8477 68.2344 14.4844 69.6328 14.6641 71.4219H12.4023C12.207 70.0625 11.7812 69.0781 11.125 68.4688C10.4766 67.8594 9.56641 67.5547 8.39453 67.5547C6.95703 67.5547 5.82812 68.0859 5.00781 69.1484C4.19531 70.2109 3.78906 71.7227 3.78906 73.6836V75.3359C3.78906 77.1875 4.17578 78.6602 4.94922 79.7539C5.72266 80.8477 6.80469 81.3945 8.19531 81.3945C9.44531 81.3945 10.4023 81.1133 11.0664 80.5508C11.7383 79.9805 12.1836 78.9922 12.4023 77.5859H14.6641ZM23.5352 72.2656C23.207 72.2109 22.8516 72.1836 22.4688 72.1836C21.0469 72.1836 20.082 72.7891 19.5742 74V83H17.4062V70.3203H19.5156L19.5508 71.7852C20.2617 70.6523 21.2695 70.0859 22.5742 70.0859C22.9961 70.0859 23.3164 70.1406 23.5352 70.25V72.2656ZM30.5664 83.2344C28.8477 83.2344 27.4492 82.6719 26.3711 81.5469C25.293 80.4141 24.7539 78.9023 24.7539 77.0117V76.6133C24.7539 75.3555 24.9922 74.2344 25.4688 73.25C25.9531 72.2578 26.625 71.4844 27.4844 70.9297C28.3516 70.3672 29.2891 70.0859 30.2969 70.0859C31.9453 70.0859 33.2266 70.6289 34.1406 71.7148C35.0547 72.8008 35.5117 74.3555 35.5117 76.3789V77.2812H26.9219C26.9531 78.5312 27.3164 79.543 28.0117 80.3164C28.7148 81.082 29.6055 81.4648 30.6836 81.4648C31.4492 81.4648 32.0977 81.3086 32.6289 80.9961C33.1602 80.6836 33.625 80.2695 34.0234 79.7539L35.3477 80.7852C34.2852 82.418 32.6914 83.2344 30.5664 83.2344ZM30.2969 71.8672C29.4219 71.8672 28.6875 72.1875 28.0938 72.8281C27.5 73.4609 27.1328 74.3516 26.9922 75.5H33.3438V75.3359C33.2812 74.2344 32.9844 73.3828 32.4531 72.7812C31.9219 72.1719 31.2031 71.8672 30.2969 71.8672ZM45.8594 83C45.7344 82.75 45.6328 82.3047 45.5547 81.6641C44.5469 82.7109 43.3438 83.2344 41.9453 83.2344C40.6953 83.2344 39.668 82.8828 38.8633 82.1797C38.0664 81.4688 37.668 80.5703 37.668 79.4844C37.668 78.1641 38.168 77.1406 39.168 76.4141C40.1758 75.6797 41.5898 75.3125 43.4102 75.3125H45.5195V74.3164C45.5195 73.5586 45.293 72.957 44.8398 72.5117C44.3867 72.0586 43.7188 71.832 42.8359 71.832C42.0625 71.832 41.4141 72.0273 40.8906 72.418C40.3672 72.8086 40.1055 73.2812 40.1055 73.8359H37.9258C37.9258 73.2031 38.1484 72.5938 38.5938 72.0078C39.0469 71.4141 39.6562 70.9453 40.4219 70.6016C41.1953 70.2578 42.043 70.0859 42.9648 70.0859C44.4258 70.0859 45.5703 70.4531 46.3984 71.1875C47.2266 71.9141 47.6562 72.918 47.6875 74.1992V80.0352C47.6875 81.1992 47.8359 82.125 48.1328 82.8125V83H45.8594ZM42.2617 81.3477C42.9414 81.3477 43.5859 81.1719 44.1953 80.8203C44.8047 80.4688 45.2461 80.0117 45.5195 79.4492V76.8477H43.8203C41.1641 76.8477 39.8359 77.625 39.8359 79.1797C39.8359 79.8594 40.0625 80.3906 40.5156 80.7734C40.9688 81.1562 41.5508 81.3477 42.2617 81.3477ZM54.0273 67.25V70.3203H56.3945V71.9961H54.0273V79.8594C54.0273 80.3672 54.1328 80.75 54.3438 81.0078C54.5547 81.2578 54.9141 81.3828 55.4219 81.3828C55.6719 81.3828 56.0156 81.3359 56.4531 81.2422V83C55.8828 83.1562 55.3281 83.2344 54.7891 83.2344C53.8203 83.2344 53.0898 82.9414 52.5977 82.3555C52.1055 81.7695 51.8594 80.9375 51.8594 79.8594V71.9961H49.5508V70.3203H51.8594V67.25H54.0273ZM64.1992 83.2344C62.4805 83.2344 61.082 82.6719 60.0039 81.5469C58.9258 80.4141 58.3867 78.9023 58.3867 77.0117V76.6133C58.3867 75.3555 58.625 74.2344 59.1016 73.25C59.5859 72.2578 60.2578 71.4844 61.1172 70.9297C61.9844 70.3672 62.9219 70.0859 63.9297 70.0859C65.5781 70.0859 66.8594 70.6289 67.7734 71.7148C68.6875 72.8008 69.1445 74.3555 69.1445 76.3789V77.2812H60.5547C60.5859 78.5312 60.9492 79.543 61.6445 80.3164C62.3477 81.082 63.2383 81.4648 64.3164 81.4648C65.082 81.4648 65.7305 81.3086 66.2617 80.9961C66.793 80.6836 67.2578 80.2695 67.6562 79.7539L68.9805 80.7852C67.918 82.418 66.3242 83.2344 64.1992 83.2344ZM63.9297 71.8672C63.0547 71.8672 62.3203 72.1875 61.7266 72.8281C61.1328 73.4609 60.7656 74.3516 60.625 75.5H66.9766V75.3359C66.9141 74.2344 66.6172 73.3828 66.0859 72.7812C65.5547 72.1719 64.8359 71.8672 63.9297 71.8672ZM80.207 76.3203V83H77.957V65.9375H84.25C86.1172 65.9375 87.5781 66.4141 88.6328 67.3672C89.6953 68.3203 90.2266 69.582 90.2266 71.1523C90.2266 72.8086 89.707 74.0859 88.668 74.9844C87.6367 75.875 86.1562 76.3203 84.2266 76.3203H80.207ZM80.207 74.4805H84.25C85.4531 74.4805 86.375 74.1992 87.0156 73.6367C87.6562 73.0664 87.9766 72.2461 87.9766 71.1758C87.9766 70.1602 87.6562 69.3477 87.0156 68.7383C86.375 68.1289 85.4961 67.8125 84.3789 67.7891H80.207V74.4805ZM92.0195 76.543C92.0195 75.3008 92.2617 74.1836 92.7461 73.1914C93.2383 72.1992 93.918 71.4336 94.7852 70.8945C95.6602 70.3555 96.6562 70.0859 97.7734 70.0859C99.5 70.0859 100.895 70.6836 101.957 71.8789C103.027 73.0742 103.562 74.6641 103.562 76.6484V76.8008C103.562 78.0352 103.324 79.1445 102.848 80.1289C102.379 81.1055 101.703 81.8672 100.82 82.4141C99.9453 82.9609 98.9375 83.2344 97.7969 83.2344C96.0781 83.2344 94.6836 82.6367 93.6133 81.4414C92.5508 80.2461 92.0195 78.6641 92.0195 76.6953V76.543ZM94.1992 76.8008C94.1992 78.207 94.5234 79.3359 95.1719 80.1875C95.8281 81.0391 96.7031 81.4648 97.7969 81.4648C98.8984 81.4648 99.7734 81.0352 100.422 80.1758C101.07 79.3086 101.395 78.0977 101.395 76.543C101.395 75.1523 101.062 74.0273 100.398 73.168C99.7422 72.3008 98.8672 71.8672 97.7734 71.8672C96.7031 71.8672 95.8398 72.293 95.1836 73.1445C94.5273 73.9961 94.1992 75.2148 94.1992 76.8008ZM113.664 79.6367C113.664 79.0508 113.441 78.5977 112.996 78.2773C112.559 77.9492 111.789 77.668 110.688 77.4336C109.594 77.1992 108.723 76.918 108.074 76.5898C107.434 76.2617 106.957 75.8711 106.645 75.418C106.34 74.9648 106.188 74.4258 106.188 73.8008C106.188 72.7617 106.625 71.8828 107.5 71.1641C108.383 70.4453 109.508 70.0859 110.875 70.0859C112.312 70.0859 113.477 70.457 114.367 71.1992C115.266 71.9414 115.715 72.8906 115.715 74.0469H113.535C113.535 73.4531 113.281 72.9414 112.773 72.5117C112.273 72.082 111.641 71.8672 110.875 71.8672C110.086 71.8672 109.469 72.0391 109.023 72.3828C108.578 72.7266 108.355 73.1758 108.355 73.7305C108.355 74.2539 108.562 74.6484 108.977 74.9141C109.391 75.1797 110.137 75.4336 111.215 75.6758C112.301 75.918 113.18 76.207 113.852 76.543C114.523 76.8789 115.02 77.2852 115.34 77.7617C115.668 78.2305 115.832 78.8047 115.832 79.4844C115.832 80.6172 115.379 81.5273 114.473 82.2148C113.566 82.8945 112.391 83.2344 110.945 83.2344C109.93 83.2344 109.031 83.0547 108.25 82.6953C107.469 82.3359 106.855 81.8359 106.41 81.1953C105.973 80.5469 105.754 79.8477 105.754 79.0977H107.922C107.961 79.8242 108.25 80.4023 108.789 80.832C109.336 81.2539 110.055 81.4648 110.945 81.4648C111.766 81.4648 112.422 81.3008 112.914 80.9727C113.414 80.6367 113.664 80.1914 113.664 79.6367ZM121.598 67.25V70.3203H123.965V71.9961H121.598V79.8594C121.598 80.3672 121.703 80.75 121.914 81.0078C122.125 81.2578 122.484 81.3828 122.992 81.3828C123.242 81.3828 123.586 81.3359 124.023 81.2422V83C123.453 83.1562 122.898 83.2344 122.359 83.2344C121.391 83.2344 120.66 82.9414 120.168 82.3555C119.676 81.7695 119.43 80.9375 119.43 79.8594V71.9961H117.121V70.3203H119.43V67.25H121.598Z" fill="black"/>
</svg>
