<svg width="323" height="52" viewBox="0 0 323 52" fill="none" xmlns="http://www.w3.org/2000/svg">
<path d="M30.1602 20.9002C30.8802 20.9002 31.4002 20.7402 31.7202 20.4202C32.0402 20.1002 32.5402 19.4202 33.2202 18.3802L40.5402 7.22019C40.7802 6.82019 41.0402 6.56019 41.3202 6.44019C41.6402 6.28019 41.9602 6.20019 42.2802 6.20019H43.3002C43.8602 6.20019 44.2602 6.36019 44.5002 6.68019C44.7802 6.9602 44.9202 7.4202 44.9202 8.06019V38.6002H44.3202V8.06019C44.3202 7.74019 44.2402 7.46019 44.0802 7.22019C43.9602 6.9402 43.7002 6.8002 43.3002 6.8002H42.4002C42.1202 6.8002 41.8802 6.8402 41.6802 6.92019C41.4802 7.00019 41.2602 7.24019 41.0202 7.6402L33.7002 18.6802C32.9802 19.7602 32.4202 20.5002 32.0202 20.9002C31.6602 21.3002 31.0402 21.5002 30.1602 21.5002C29.2802 21.5002 28.6402 21.3002 28.2402 20.9002C27.8802 20.5002 27.3402 19.7602 26.6202 18.6802L19.3002 7.6402C19.0602 7.24019 18.8202 7.00019 18.5802 6.92019C18.3802 6.8402 18.1402 6.8002 17.8602 6.8002H16.9602C16.5602 6.8002 16.3002 6.9402 16.1802 7.22019C16.0602 7.46019 16.0002 7.74019 16.0002 8.06019V38.6002H15.4002V8.06019C15.4002 7.4202 15.5202 6.9602 15.7602 6.68019C16.0402 6.36019 16.4402 6.20019 16.9602 6.20019H17.9802C18.3002 6.20019 18.6202 6.28019 18.9402 6.44019C19.2602 6.56019 19.5402 6.82019 19.7802 7.22019L27.1002 18.3802C27.7802 19.4202 28.2802 20.1002 28.6002 20.4202C28.9202 20.7402 29.4402 20.9002 30.1602 20.9002ZM20.1402 44.0002C20.9002 44.0002 21.4402 43.8402 21.7602 43.5202C22.1202 43.1602 22.3002 42.6002 22.3002 41.8402V20.7202L25.8402 27.2602C26.2002 27.9402 26.6202 28.4402 27.1002 28.7602C27.6202 29.0402 28.2602 29.1802 29.0202 29.1802H31.4202C32.1802 29.1802 32.8002 29.0402 33.2802 28.7602C33.8002 28.4402 34.2402 27.9402 34.6002 27.2602L38.1402 20.7202V41.8402C38.1402 42.6002 38.3002 43.1602 38.6202 43.5202C38.9802 43.8402 39.5402 44.0002 40.3002 44.0002H49.5402C50.3002 44.0002 50.8402 43.8402 51.1602 43.5202C51.5202 43.1602 51.7002 42.6002 51.7002 41.8402V2.9602C51.7002 2.2002 51.5202 1.6602 51.1602 1.34019C50.8402 0.980195 50.3002 0.800195 49.5402 0.800195H39.8202C39.1802 0.800195 38.6402 0.940194 38.2002 1.22019C37.8002 1.50019 37.4202 1.96019 37.0602 2.60019L31.7202 12.3802C31.5202 12.7402 31.3402 13.0002 31.1802 13.1602C31.0602 13.3202 30.8802 13.4002 30.6402 13.4002H30.1002C29.8602 13.4002 29.6602 13.3202 29.5002 13.1602C29.3802 13.0002 29.2202 12.7402 29.0202 12.3802L23.6202 2.60019C23.2602 1.96019 22.8602 1.50019 22.4202 1.22019C22.0202 0.940194 21.5002 0.800195 20.8602 0.800195H11.2002C10.4402 0.800195 9.8802 0.980195 9.5202 1.34019C9.2002 1.6602 9.0402 2.2002 9.0402 2.9602V41.8402C9.0402 42.6002 9.2002 43.1602 9.5202 43.5202C9.8802 43.8402 10.4402 44.0002 11.2002 44.0002H20.1402ZM22.0602 44.0602L14.2602 50.5402C14.1002 50.7002 13.8402 50.8402 13.4802 50.9602C13.1602 51.0802 12.8002 51.1402 12.4002 51.1402H3.4602C2.5002 51.1402 1.8002 50.9202 1.3602 50.4802C0.920195 50.0402 0.700195 49.3402 0.700195 48.3802V9.50019C0.700195 8.9802 0.760195 8.5402 0.880195 8.1802C1.0402 7.8202 1.2602 7.5202 1.5402 7.28019L9.2802 0.740196C9.4802 0.580195 9.7402 0.460194 10.0602 0.380193C10.4202 0.260195 10.8002 0.200195 11.2002 0.200195H20.8602C21.6202 0.200195 22.2402 0.360194 22.7202 0.680193C23.2402 1.00019 23.7202 1.54019 24.1602 2.30019L28.2402 9.80019L28.7802 8.84019C28.9402 8.56019 29.1002 8.30019 29.2602 8.06019C29.4602 7.7802 29.6602 7.5602 29.8602 7.4002L37.6002 0.920193C37.9202 0.680194 38.2402 0.500194 38.5602 0.380193C38.9202 0.260195 39.3402 0.200195 39.8202 0.200195H49.5402C50.5002 0.200195 51.2002 0.420195 51.6402 0.860194C52.0802 1.3002 52.3002 2.0002 52.3002 2.9602V41.8402C52.3002 42.3602 52.2202 42.8002 52.0602 43.1602C51.9402 43.5202 51.7402 43.8202 51.4602 44.0602L43.6602 50.5402C43.5002 50.7002 43.2402 50.8402 42.8802 50.9602C42.5602 51.0802 42.2002 51.1402 41.8002 51.1402H32.5602C31.5602 51.1402 30.8402 50.9202 30.4002 50.4802C30.0002 50.0402 29.8002 49.3402 29.8002 48.3802V32.5402L26.2602 35.4802C25.9402 35.7602 25.5602 35.9802 25.1202 36.1402C24.7202 36.2602 24.2402 36.3202 23.6802 36.3202H22.9002V41.8402C22.9002 42.3602 22.8202 42.8002 22.6602 43.1602C22.5402 43.5202 22.3402 43.8202 22.0602 44.0602Z" fill="black"/>
<path d="M88.2533 51.1402H60.4133C59.4533 51.1402 58.7533 50.9202 58.3133 50.4802C57.8733 50.0402 57.6533 49.3402 57.6533 48.3802V9.50019C57.6533 8.9802 57.7133 8.5402 57.8333 8.1802C57.9933 7.8202 58.2133 7.5202 58.4933 7.28019L66.2333 0.740196C66.4333 0.580195 66.6933 0.460194 67.0133 0.380193C67.3733 0.260195 67.7533 0.200195 68.1533 0.200195H95.9933C96.9533 0.200195 97.6533 0.420195 98.0933 0.860194C98.5333 1.3002 98.7533 2.0002 98.7533 2.9602V9.98019C98.7533 10.5002 98.6733 10.9402 98.5133 11.3002C98.3933 11.6602 98.1933 11.9602 97.9133 12.2002L92.7533 16.4602C93.1533 16.6602 93.4333 16.9602 93.5933 17.3602C93.7933 17.7602 93.8933 18.2802 93.8933 18.9202V25.3402C93.8933 25.8602 93.8133 26.3002 93.6533 26.6602C93.5333 27.0202 93.3333 27.3202 93.0533 27.5602L87.7133 32.0602H95.9933C96.9533 32.0602 97.6533 32.2802 98.0933 32.7202C98.5333 33.1602 98.7533 33.8602 98.7533 34.8202V41.8402C98.7533 42.3602 98.6733 42.8002 98.5133 43.1602C98.3933 43.5202 98.1933 43.8202 97.9133 44.0602L90.1133 50.5402C89.9533 50.7002 89.6933 50.8402 89.3333 50.9602C89.0133 51.0802 88.6533 51.1402 88.2533 51.1402ZM95.9933 44.0002C96.7533 44.0002 97.2933 43.8402 97.6133 43.5202C97.9733 43.1602 98.1533 42.6002 98.1533 41.8402V34.8202C98.1533 34.0602 97.9733 33.5202 97.6133 33.2002C97.2933 32.8402 96.7533 32.6602 95.9933 32.6602H79.4333V27.5002H91.1333C91.8933 27.5002 92.4333 27.3402 92.7533 27.0202C93.1133 26.6602 93.2933 26.1002 93.2933 25.3402V18.9202C93.2933 18.1602 93.1133 17.6202 92.7533 17.3002C92.4333 16.9402 91.8933 16.7602 91.1333 16.7602H79.4333V12.1402H95.9933C96.7533 12.1402 97.2933 11.9802 97.6133 11.6602C97.9733 11.3002 98.1533 10.7402 98.1533 9.98019V2.9602C98.1533 2.2002 97.9733 1.6602 97.6133 1.34019C97.2933 0.980195 96.7533 0.800195 95.9933 0.800195H68.1533C67.3933 0.800195 66.8333 0.980195 66.4733 1.34019C66.1533 1.6602 65.9933 2.2002 65.9933 2.9602V41.8402C65.9933 42.6002 66.1533 43.1602 66.4733 43.5202C66.8333 43.8402 67.3933 44.0002 68.1533 44.0002H95.9933ZM92.7533 38.0002V38.6002H72.5333V6.20019H92.7533V6.8002H73.1333V21.8602H87.8933V22.4602H73.1333V38.0002H92.7533Z" fill="black"/>
<path d="M132.348 20.9002C133.068 20.9002 133.588 20.7402 133.908 20.4202C134.228 20.1002 134.728 19.4202 135.408 18.3802L142.728 7.22019C142.968 6.82019 143.228 6.56019 143.508 6.44019C143.828 6.28019 144.148 6.20019 144.468 6.20019H145.488C146.048 6.20019 146.448 6.36019 146.688 6.68019C146.968 6.9602 147.108 7.4202 147.108 8.06019V38.6002H146.508V8.06019C146.508 7.74019 146.428 7.46019 146.268 7.22019C146.148 6.9402 145.888 6.8002 145.488 6.8002H144.588C144.308 6.8002 144.068 6.8402 143.868 6.92019C143.668 7.00019 143.448 7.24019 143.208 7.6402L135.888 18.6802C135.168 19.7602 134.608 20.5002 134.208 20.9002C133.848 21.3002 133.228 21.5002 132.348 21.5002C131.468 21.5002 130.828 21.3002 130.428 20.9002C130.068 20.5002 129.528 19.7602 128.808 18.6802L121.488 7.6402C121.248 7.24019 121.008 7.00019 120.768 6.92019C120.568 6.8402 120.328 6.8002 120.048 6.8002H119.148C118.748 6.8002 118.488 6.9402 118.368 7.22019C118.248 7.46019 118.188 7.74019 118.188 8.06019V38.6002H117.588V8.06019C117.588 7.4202 117.708 6.9602 117.948 6.68019C118.228 6.36019 118.628 6.20019 119.148 6.20019H120.168C120.488 6.20019 120.808 6.28019 121.128 6.44019C121.448 6.56019 121.728 6.82019 121.968 7.22019L129.288 18.3802C129.968 19.4202 130.468 20.1002 130.788 20.4202C131.108 20.7402 131.628 20.9002 132.348 20.9002ZM122.328 44.0002C123.088 44.0002 123.628 43.8402 123.948 43.5202C124.308 43.1602 124.488 42.6002 124.488 41.8402V20.7202L128.028 27.2602C128.388 27.9402 128.808 28.4402 129.288 28.7602C129.808 29.0402 130.448 29.1802 131.208 29.1802H133.608C134.368 29.1802 134.988 29.0402 135.468 28.7602C135.988 28.4402 136.428 27.9402 136.788 27.2602L140.328 20.7202V41.8402C140.328 42.6002 140.488 43.1602 140.808 43.5202C141.168 43.8402 141.728 44.0002 142.488 44.0002H151.728C152.488 44.0002 153.028 43.8402 153.348 43.5202C153.708 43.1602 153.888 42.6002 153.888 41.8402V2.9602C153.888 2.2002 153.708 1.6602 153.348 1.34019C153.028 0.980195 152.488 0.800195 151.728 0.800195H142.008C141.368 0.800195 140.828 0.940194 140.388 1.22019C139.988 1.50019 139.608 1.96019 139.248 2.60019L133.908 12.3802C133.708 12.7402 133.528 13.0002 133.368 13.1602C133.248 13.3202 133.068 13.4002 132.828 13.4002H132.288C132.048 13.4002 131.848 13.3202 131.688 13.1602C131.568 13.0002 131.408 12.7402 131.208 12.3802L125.808 2.60019C125.448 1.96019 125.048 1.50019 124.608 1.22019C124.208 0.940194 123.688 0.800195 123.048 0.800195H113.388C112.628 0.800195 112.068 0.980195 111.708 1.34019C111.388 1.6602 111.228 2.2002 111.228 2.9602V41.8402C111.228 42.6002 111.388 43.1602 111.708 43.5202C112.068 43.8402 112.628 44.0002 113.388 44.0002H122.328ZM124.248 44.0602L116.448 50.5402C116.288 50.7002 116.028 50.8402 115.668 50.9602C115.348 51.0802 114.988 51.1402 114.588 51.1402H105.648C104.688 51.1402 103.988 50.9202 103.548 50.4802C103.108 50.0402 102.888 49.3402 102.888 48.3802V9.50019C102.888 8.9802 102.948 8.5402 103.068 8.1802C103.228 7.8202 103.448 7.5202 103.728 7.28019L111.468 0.740196C111.668 0.580195 111.928 0.460194 112.248 0.380193C112.608 0.260195 112.988 0.200195 113.388 0.200195H123.048C123.808 0.200195 124.428 0.360194 124.908 0.680193C125.428 1.00019 125.908 1.54019 126.348 2.30019L130.428 9.80019L130.968 8.84019C131.128 8.56019 131.288 8.30019 131.448 8.06019C131.648 7.7802 131.848 7.5602 132.048 7.4002L139.788 0.920193C140.108 0.680194 140.428 0.500194 140.748 0.380193C141.108 0.260195 141.528 0.200195 142.008 0.200195H151.728C152.688 0.200195 153.388 0.420195 153.828 0.860194C154.268 1.3002 154.488 2.0002 154.488 2.9602V41.8402C154.488 42.3602 154.408 42.8002 154.248 43.1602C154.128 43.5202 153.928 43.8202 153.648 44.0602L145.848 50.5402C145.688 50.7002 145.428 50.8402 145.068 50.9602C144.748 51.0802 144.388 51.1402 143.988 51.1402H134.748C133.748 51.1402 133.028 50.9202 132.588 50.4802C132.188 50.0402 131.988 49.3402 131.988 48.3802V32.5402L128.448 35.4802C128.128 35.7602 127.748 35.9802 127.308 36.1402C126.908 36.2602 126.428 36.3202 125.868 36.3202H125.088V41.8402C125.088 42.3602 125.008 42.8002 124.848 43.1602C124.728 43.5202 124.528 43.8202 124.248 44.0602Z" fill="black"/>
<path d="M190.441 51.1402H162.601C161.641 51.1402 160.941 50.9202 160.501 50.4802C160.061 50.0402 159.841 49.3402 159.841 48.3802V9.50019C159.841 8.9802 159.901 8.5402 160.021 8.1802C160.181 7.8202 160.401 7.5202 160.681 7.28019L168.421 0.740196C168.621 0.580195 168.881 0.460194 169.201 0.380193C169.561 0.260195 169.941 0.200195 170.341 0.200195H198.181C199.141 0.200195 199.841 0.420195 200.281 0.860194C200.721 1.3002 200.941 2.0002 200.941 2.9602V9.98019C200.941 10.5002 200.861 10.9402 200.701 11.3002C200.581 11.6602 200.381 11.9602 200.101 12.2002L194.941 16.4602C195.341 16.6602 195.621 16.9602 195.781 17.3602C195.981 17.7602 196.081 18.2802 196.081 18.9202V25.3402C196.081 25.8602 196.001 26.3002 195.841 26.6602C195.721 27.0202 195.521 27.3202 195.241 27.5602L189.901 32.0602H198.181C199.141 32.0602 199.841 32.2802 200.281 32.7202C200.721 33.1602 200.941 33.8602 200.941 34.8202V41.8402C200.941 42.3602 200.861 42.8002 200.701 43.1602C200.581 43.5202 200.381 43.8202 200.101 44.0602L192.301 50.5402C192.141 50.7002 191.881 50.8402 191.521 50.9602C191.201 51.0802 190.841 51.1402 190.441 51.1402ZM198.181 44.0002C198.941 44.0002 199.481 43.8402 199.801 43.5202C200.161 43.1602 200.341 42.6002 200.341 41.8402V34.8202C200.341 34.0602 200.161 33.5202 199.801 33.2002C199.481 32.8402 198.941 32.6602 198.181 32.6602H181.621V27.5002H193.321C194.081 27.5002 194.621 27.3402 194.941 27.0202C195.301 26.6602 195.481 26.1002 195.481 25.3402V18.9202C195.481 18.1602 195.301 17.6202 194.941 17.3002C194.621 16.9402 194.081 16.7602 193.321 16.7602H181.621V12.1402H198.181C198.941 12.1402 199.481 11.9802 199.801 11.6602C200.161 11.3002 200.341 10.7402 200.341 9.98019V2.9602C200.341 2.2002 200.161 1.6602 199.801 1.34019C199.481 0.980195 198.941 0.800195 198.181 0.800195H170.341C169.581 0.800195 169.021 0.980195 168.661 1.34019C168.341 1.6602 168.181 2.2002 168.181 2.9602V41.8402C168.181 42.6002 168.341 43.1602 168.661 43.5202C169.021 43.8402 169.581 44.0002 170.341 44.0002H198.181ZM194.941 38.0002V38.6002H174.721V6.20019H194.941V6.8002H175.321V21.8602H190.081V22.4602H175.321V38.0002H194.941Z" fill="black"/>
<path d="M254.047 20.9002C254.767 20.9002 255.287 20.7402 255.607 20.4202C255.927 20.1002 256.427 19.4202 257.107 18.3802L264.427 7.22019C264.667 6.82019 264.927 6.56019 265.207 6.44019C265.527 6.28019 265.847 6.20019 266.167 6.20019H267.187C267.747 6.20019 268.147 6.36019 268.387 6.68019C268.667 6.9602 268.807 7.4202 268.807 8.06019V38.6002H268.207V8.06019C268.207 7.74019 268.127 7.46019 267.967 7.22019C267.847 6.9402 267.587 6.8002 267.187 6.8002H266.287C266.007 6.8002 265.767 6.8402 265.567 6.92019C265.367 7.00019 265.147 7.24019 264.907 7.6402L257.587 18.6802C256.867 19.7602 256.307 20.5002 255.907 20.9002C255.547 21.3002 254.927 21.5002 254.047 21.5002C253.167 21.5002 252.527 21.3002 252.127 20.9002C251.767 20.5002 251.227 19.7602 250.507 18.6802L243.187 7.6402C242.947 7.24019 242.707 7.00019 242.467 6.92019C242.267 6.8402 242.027 6.8002 241.747 6.8002H240.847C240.447 6.8002 240.187 6.9402 240.067 7.22019C239.947 7.46019 239.887 7.74019 239.887 8.06019V38.6002H239.287V8.06019C239.287 7.4202 239.407 6.9602 239.647 6.68019C239.927 6.36019 240.327 6.20019 240.847 6.20019H241.867C242.187 6.20019 242.507 6.28019 242.827 6.44019C243.147 6.56019 243.427 6.82019 243.667 7.22019L250.987 18.3802C251.667 19.4202 252.167 20.1002 252.487 20.4202C252.807 20.7402 253.327 20.9002 254.047 20.9002ZM244.027 44.0002C244.787 44.0002 245.327 43.8402 245.647 43.5202C246.007 43.1602 246.187 42.6002 246.187 41.8402V20.7202L249.727 27.2602C250.087 27.9402 250.507 28.4402 250.987 28.7602C251.507 29.0402 252.147 29.1802 252.907 29.1802H255.307C256.067 29.1802 256.687 29.0402 257.167 28.7602C257.687 28.4402 258.127 27.9402 258.487 27.2602L262.027 20.7202V41.8402C262.027 42.6002 262.187 43.1602 262.507 43.5202C262.867 43.8402 263.427 44.0002 264.187 44.0002H273.427C274.187 44.0002 274.727 43.8402 275.047 43.5202C275.407 43.1602 275.587 42.6002 275.587 41.8402V2.9602C275.587 2.2002 275.407 1.6602 275.047 1.34019C274.727 0.980195 274.187 0.800195 273.427 0.800195H263.707C263.067 0.800195 262.527 0.940194 262.087 1.22019C261.687 1.50019 261.307 1.96019 260.947 2.60019L255.607 12.3802C255.407 12.7402 255.227 13.0002 255.067 13.1602C254.947 13.3202 254.767 13.4002 254.527 13.4002H253.987C253.747 13.4002 253.547 13.3202 253.387 13.1602C253.267 13.0002 253.107 12.7402 252.907 12.3802L247.507 2.60019C247.147 1.96019 246.747 1.50019 246.307 1.22019C245.907 0.940194 245.387 0.800195 244.747 0.800195H235.087C234.327 0.800195 233.767 0.980195 233.407 1.34019C233.087 1.6602 232.927 2.2002 232.927 2.9602V41.8402C232.927 42.6002 233.087 43.1602 233.407 43.5202C233.767 43.8402 234.327 44.0002 235.087 44.0002H244.027ZM245.947 44.0602L238.147 50.5402C237.987 50.7002 237.727 50.8402 237.367 50.9602C237.047 51.0802 236.687 51.1402 236.287 51.1402H227.347C226.387 51.1402 225.687 50.9202 225.247 50.4802C224.807 50.0402 224.587 49.3402 224.587 48.3802V9.50019C224.587 8.9802 224.647 8.5402 224.767 8.1802C224.927 7.8202 225.147 7.5202 225.427 7.28019L233.167 0.740196C233.367 0.580195 233.627 0.460194 233.947 0.380193C234.307 0.260195 234.687 0.200195 235.087 0.200195H244.747C245.507 0.200195 246.127 0.360194 246.607 0.680193C247.127 1.00019 247.607 1.54019 248.047 2.30019L252.127 9.80019L252.667 8.84019C252.827 8.56019 252.987 8.30019 253.147 8.06019C253.347 7.7802 253.547 7.5602 253.747 7.4002L261.487 0.920193C261.807 0.680194 262.127 0.500194 262.447 0.380193C262.807 0.260195 263.227 0.200195 263.707 0.200195H273.427C274.387 0.200195 275.087 0.420195 275.527 0.860194C275.967 1.3002 276.187 2.0002 276.187 2.9602V41.8402C276.187 42.3602 276.107 42.8002 275.947 43.1602C275.827 43.5202 275.627 43.8202 275.347 44.0602L267.547 50.5402C267.387 50.7002 267.127 50.8402 266.767 50.9602C266.447 51.0802 266.087 51.1402 265.687 51.1402H256.447C255.447 51.1402 254.727 50.9202 254.287 50.4802C253.887 50.0402 253.687 49.3402 253.687 48.3802V32.5402L250.147 35.4802C249.827 35.7602 249.447 35.9802 249.007 36.1402C248.607 36.2602 248.127 36.3202 247.567 36.3202H246.787V41.8402C246.787 42.3602 246.707 42.8002 246.547 43.1602C246.427 43.5202 246.227 43.8202 245.947 44.0602Z" fill="black"/>
<path d="M312.14 51.1402H284.3C283.34 51.1402 282.64 50.9202 282.2 50.4802C281.76 50.0402 281.54 49.3402 281.54 48.3802V9.50019C281.54 8.9802 281.6 8.5402 281.72 8.1802C281.88 7.8202 282.1 7.5202 282.38 7.28019L290.12 0.740196C290.32 0.580195 290.58 0.460194 290.9 0.380193C291.26 0.260195 291.64 0.200195 292.04 0.200195H319.88C320.84 0.200195 321.54 0.420195 321.98 0.860194C322.42 1.3002 322.64 2.0002 322.64 2.9602V9.98019C322.64 10.5002 322.56 10.9402 322.4 11.3002C322.28 11.6602 322.08 11.9602 321.8 12.2002L316.64 16.4602C317.04 16.6602 317.32 16.9602 317.48 17.3602C317.68 17.7602 317.78 18.2802 317.78 18.9202V25.3402C317.78 25.8602 317.7 26.3002 317.54 26.6602C317.42 27.0202 317.22 27.3202 316.94 27.5602L311.6 32.0602H319.88C320.84 32.0602 321.54 32.2802 321.98 32.7202C322.42 33.1602 322.64 33.8602 322.64 34.8202V41.8402C322.64 42.3602 322.56 42.8002 322.4 43.1602C322.28 43.5202 322.08 43.8202 321.8 44.0602L314 50.5402C313.84 50.7002 313.58 50.8402 313.22 50.9602C312.9 51.0802 312.54 51.1402 312.14 51.1402ZM319.88 44.0002C320.64 44.0002 321.18 43.8402 321.5 43.5202C321.86 43.1602 322.04 42.6002 322.04 41.8402V34.8202C322.04 34.0602 321.86 33.5202 321.5 33.2002C321.18 32.8402 320.64 32.6602 319.88 32.6602H303.32V27.5002H315.02C315.78 27.5002 316.32 27.3402 316.64 27.0202C317 26.6602 317.18 26.1002 317.18 25.3402V18.9202C317.18 18.1602 317 17.6202 316.64 17.3002C316.32 16.9402 315.78 16.7602 315.02 16.7602H303.32V12.1402H319.88C320.64 12.1402 321.18 11.9802 321.5 11.6602C321.86 11.3002 322.04 10.7402 322.04 9.98019V2.9602C322.04 2.2002 321.86 1.6602 321.5 1.34019C321.18 0.980195 320.64 0.800195 319.88 0.800195H292.04C291.28 0.800195 290.72 0.980195 290.36 1.34019C290.04 1.6602 289.88 2.2002 289.88 2.9602V41.8402C289.88 42.6002 290.04 43.1602 290.36 43.5202C290.72 43.8402 291.28 44.0002 292.04 44.0002H319.88ZM316.64 38.0002V38.6002H296.42V6.20019H316.64V6.8002H297.02V21.8602H311.78V22.4602H297.02V38.0002H316.64Z" fill="black"/>
</svg>
