<svg id="SvgjsSvg1001" width="288" height="288" xmlns="http://www.w3.org/2000/svg" version="1.1" xmlns:xlink="http://www.w3.org/1999/xlink" xmlns:svgjs="http://svgjs.com/svgjs"><defs id="SvgjsDefs1002"></defs><g id="SvgjsG1008" transform="matrix(0.9167,0,0,0.9167,12.145951188659666,11.8583500453949)"><svg xmlns="http://www.w3.org/2000/svg" data-name="Layer 1" viewBox="0 0 24 24" width="288" height="288"><path d="M9,15h3.81l8.7-8.69a2.7,2.7,0,0,0,0-3.82,2.77,2.77,0,0,0-3.82,0L9,11.19Zm2-3,8.11-8.1a.69.69,0,0,1,1,0h0a.68.68,0,0,1,0,1L12,13H11Z" fill="#ffffff" class="color000 svgShape"></path><path d="M20,19.07a.93.93,0,0,1-.93.93H4.93A.93.93,0,0,1,4,19.07V4.93A.93.93,0,0,1,4.93,4H15V2H4.93A2.93,2.93,0,0,0,2,4.93V19.07A2.93,2.93,0,0,0,4.93,22H19.07A2.93,2.93,0,0,0,22,19.07V10H20Z" fill="#ffffff" class="color000 svgShape"></path></svg></g></svg>