<?xml version="1.0" encoding="UTF-8" standalone="no"?>
<!DOCTYPE svg PUBLIC "-//W3C//DTD SVG 1.1//EN" "http://www.w3.org/Graphics/SVG/1.1/DTD/svg11.dtd">
<svg version="1.1" xmlns="http://www.w3.org/2000/svg" xmlns:xlink="http://www.w3.org/1999/xlink" preserveAspectRatio="xMidYMid meet" viewBox="0 0 640 640" width="640" height="640"><defs><path d="M319.46 0C233.84 0 153.35 33.34 92.81 93.88C32.26 154.42 -1.08 234.92 -1.08 320.54C-1.08 406.16 32.26 486.65 92.81 547.19C153.35 607.74 233.84 641.08 319.46 641.08C405.08 641.08 485.58 607.74 546.12 547.19C606.66 486.65 640 406.16 640 320.54C640 234.92 606.66 154.42 546.12 93.88C485.58 33.34 405.08 0 319.46 0ZM319.46 419.79C399.01 419.79 465.9 476.72 479.3 553.91C433.79 585.18 378.73 603.51 319.46 603.51C260.19 603.51 205.13 585.18 159.62 553.91C173.02 476.72 239.91 419.79 319.46 419.79ZM319.46 178.39C375.66 178.39 421.38 224.11 421.38 280.31C421.38 336.5 375.66 382.22 319.46 382.22C263.26 382.22 217.54 336.5 217.54 280.31C217.54 224.1 263.26 178.39 319.46 178.39ZM453.51 433.85C436.24 418.23 416.59 405.9 395.46 397.21C433.65 372.3 458.95 329.2 458.95 280.31C458.95 203.39 396.37 140.82 319.46 140.82C242.55 140.82 179.98 203.39 179.98 280.31C179.98 329.2 205.27 372.3 243.46 397.21C222.33 405.9 202.68 418.22 185.41 433.85C157.27 459.32 137.19 491.92 127.08 527.86C71.4 476.14 36.49 402.35 36.49 320.54C36.49 164.51 163.43 37.56 319.46 37.56C475.49 37.56 602.44 164.51 602.44 320.54C602.44 402.35 567.52 476.15 511.84 527.86C501.73 491.93 481.65 459.32 453.51 433.85Z" id="b13wm2UOHq"></path></defs><g><g><g><use xlink:href="#b13wm2UOHq" opacity="1" fill="#ffffff" fill-opacity="1"></use><g><use xlink:href="#b13wm2UOHq" opacity="1" fill-opacity="0" stroke="#000000" stroke-width="1" stroke-opacity="0"></use></g></g></g></g></svg>